G04 #@! TF.GenerationSoftware,KiCad,Pcbnew,5.0.0-rc1-44a33f2~62~ubuntu16.04.1*
G04 #@! TF.CreationDate,2018-04-24T12:49:53+03:00*
G04 #@! TF.ProjectId,nrf52board,6E72663532626F6172642E6B69636164,rev?*
G04 #@! TF.SameCoordinates,Original*
G04 #@! TF.FileFunction,Soldermask,Bot*
G04 #@! TF.FilePolarity,Negative*
%FSLAX46Y46*%
G04 Gerber Fmt 4.6, Leading zero omitted, Abs format (unit mm)*
G04 Created by KiCad (PCBNEW 5.0.0-rc1-44a33f2~62~ubuntu16.04.1) date Tue Apr 24 12:49:53 2018*
%MOMM*%
%LPD*%
G01*
G04 APERTURE LIST*
%ADD10R,1.050000X1.460000*%
%ADD11C,2.200000*%
%ADD12C,0.100000*%
%ADD13C,1.400000*%
%ADD14R,1.900000X0.900000*%
%ADD15R,1.370000X1.900000*%
%ADD16R,1.070000X1.400000*%
%ADD17R,1.400000X1.070000*%
%ADD18R,2.100000X2.100000*%
%ADD19O,2.100000X2.100000*%
%ADD20O,1.500000X1.900000*%
%ADD21O,1.750000X2.100000*%
%ADD22R,1.300000X1.200000*%
%ADD23R,1.460000X1.050000*%
%ADD24O,0.700000X1.250000*%
%ADD25O,1.250000X0.700000*%
%ADD26R,3.750000X3.750000*%
%ADD27R,0.850000X1.000000*%
G04 APERTURE END LIST*
D10*
X65230000Y-106086000D03*
X64280000Y-106086000D03*
X63330000Y-106086000D03*
X63330000Y-103886000D03*
X65230000Y-103886000D03*
D11*
X82380000Y-54610000D03*
X82380000Y-57150000D03*
X59520000Y-54610000D03*
X59520000Y-57150000D03*
X59520000Y-59690000D03*
X59520000Y-62230000D03*
X59520000Y-64770000D03*
X59520000Y-67310000D03*
X59520000Y-69850000D03*
X59520000Y-72390000D03*
X59520000Y-74930000D03*
X59520000Y-77470000D03*
X59520000Y-80010000D03*
X59520000Y-82550000D03*
X59520000Y-85090000D03*
X59520000Y-87630000D03*
X59520000Y-90170000D03*
X59520000Y-92710000D03*
X59520000Y-95250000D03*
X59520000Y-97790000D03*
X59520000Y-100330000D03*
X82380000Y-100330000D03*
X82380000Y-97790000D03*
X82380000Y-95250000D03*
X82380000Y-92710000D03*
X82380000Y-90170000D03*
X82380000Y-87630000D03*
X82380000Y-85090000D03*
X82380000Y-82550000D03*
X82380000Y-80010000D03*
X82380000Y-77470000D03*
X82380000Y-74930000D03*
X82380000Y-72390000D03*
X82380000Y-69850000D03*
X82380000Y-67310000D03*
X82380000Y-64770000D03*
X82380000Y-62230000D03*
X82380000Y-59690000D03*
D12*
G36*
X63140612Y-82981370D02*
X63208563Y-82991449D01*
X63275199Y-83008141D01*
X63339878Y-83031283D01*
X63401978Y-83060654D01*
X63460899Y-83095970D01*
X63516075Y-83136892D01*
X63566975Y-83183024D01*
X63613107Y-83233924D01*
X63654029Y-83289100D01*
X63689345Y-83348021D01*
X63718716Y-83410121D01*
X63741858Y-83474800D01*
X63758550Y-83541436D01*
X63768629Y-83609387D01*
X63772000Y-83677999D01*
X63772000Y-83678001D01*
X63768629Y-83746613D01*
X63758550Y-83814564D01*
X63741858Y-83881200D01*
X63718716Y-83945879D01*
X63689345Y-84007979D01*
X63654029Y-84066900D01*
X63613107Y-84122076D01*
X63566975Y-84172976D01*
X63516075Y-84219108D01*
X63460899Y-84260030D01*
X63401978Y-84295346D01*
X63339878Y-84324717D01*
X63275199Y-84347859D01*
X63208563Y-84364551D01*
X63140612Y-84374630D01*
X63072000Y-84378001D01*
X62572000Y-84378001D01*
X62503388Y-84374630D01*
X62435437Y-84364551D01*
X62368801Y-84347859D01*
X62304122Y-84324717D01*
X62242022Y-84295346D01*
X62183101Y-84260030D01*
X62127925Y-84219108D01*
X62077025Y-84172976D01*
X62030893Y-84122076D01*
X61989971Y-84066900D01*
X61954655Y-84007979D01*
X61925284Y-83945879D01*
X61902142Y-83881200D01*
X61885450Y-83814564D01*
X61875371Y-83746613D01*
X61872000Y-83678001D01*
X61872000Y-83677999D01*
X61875371Y-83609387D01*
X61885450Y-83541436D01*
X61902142Y-83474800D01*
X61925284Y-83410121D01*
X61954655Y-83348021D01*
X61989971Y-83289100D01*
X62030893Y-83233924D01*
X62077025Y-83183024D01*
X62127925Y-83136892D01*
X62183101Y-83095970D01*
X62242022Y-83060654D01*
X62304122Y-83031283D01*
X62368801Y-83008141D01*
X62435437Y-82991449D01*
X62503388Y-82981370D01*
X62572000Y-82977999D01*
X63072000Y-82977999D01*
X63140612Y-82981370D01*
X63140612Y-82981370D01*
G37*
D13*
X62822000Y-83678000D03*
D12*
G36*
X63140612Y-84281370D02*
X63208563Y-84291449D01*
X63275199Y-84308141D01*
X63339878Y-84331283D01*
X63401978Y-84360654D01*
X63460899Y-84395970D01*
X63516075Y-84436892D01*
X63566975Y-84483024D01*
X63613107Y-84533924D01*
X63654029Y-84589100D01*
X63689345Y-84648021D01*
X63718716Y-84710121D01*
X63741858Y-84774800D01*
X63758550Y-84841436D01*
X63768629Y-84909387D01*
X63772000Y-84977999D01*
X63772000Y-84978001D01*
X63768629Y-85046613D01*
X63758550Y-85114564D01*
X63741858Y-85181200D01*
X63718716Y-85245879D01*
X63689345Y-85307979D01*
X63654029Y-85366900D01*
X63613107Y-85422076D01*
X63566975Y-85472976D01*
X63516075Y-85519108D01*
X63460899Y-85560030D01*
X63401978Y-85595346D01*
X63339878Y-85624717D01*
X63275199Y-85647859D01*
X63208563Y-85664551D01*
X63140612Y-85674630D01*
X63072000Y-85678001D01*
X62572000Y-85678001D01*
X62503388Y-85674630D01*
X62435437Y-85664551D01*
X62368801Y-85647859D01*
X62304122Y-85624717D01*
X62242022Y-85595346D01*
X62183101Y-85560030D01*
X62127925Y-85519108D01*
X62077025Y-85472976D01*
X62030893Y-85422076D01*
X61989971Y-85366900D01*
X61954655Y-85307979D01*
X61925284Y-85245879D01*
X61902142Y-85181200D01*
X61885450Y-85114564D01*
X61875371Y-85046613D01*
X61872000Y-84978001D01*
X61872000Y-84977999D01*
X61875371Y-84909387D01*
X61885450Y-84841436D01*
X61902142Y-84774800D01*
X61925284Y-84710121D01*
X61954655Y-84648021D01*
X61989971Y-84589100D01*
X62030893Y-84533924D01*
X62077025Y-84483024D01*
X62127925Y-84436892D01*
X62183101Y-84395970D01*
X62242022Y-84360654D01*
X62304122Y-84331283D01*
X62368801Y-84308141D01*
X62435437Y-84291449D01*
X62503388Y-84281370D01*
X62572000Y-84277999D01*
X63072000Y-84277999D01*
X63140612Y-84281370D01*
X63140612Y-84281370D01*
G37*
D13*
X62822000Y-84978000D03*
D14*
X62822000Y-84728000D03*
X62822000Y-83928000D03*
D15*
X68526800Y-71755000D03*
X66616800Y-71755000D03*
X66657400Y-69418200D03*
X68567400Y-69418200D03*
D16*
X68918000Y-74244200D03*
X67168000Y-74244200D03*
D17*
X64727000Y-59662000D03*
X64727000Y-57912000D03*
X66759000Y-57926000D03*
X66759000Y-59676000D03*
D16*
X66581200Y-66827400D03*
X68331200Y-66827400D03*
D17*
X71280200Y-70640000D03*
X71280200Y-72390000D03*
D16*
X67253000Y-101473000D03*
X65503000Y-101473000D03*
X65517000Y-99568000D03*
X67267000Y-99568000D03*
X74887000Y-87376000D03*
X76637000Y-87376000D03*
X75649000Y-104038400D03*
X77399000Y-104038400D03*
X71573600Y-104013000D03*
X73323600Y-104013000D03*
X71176000Y-99364800D03*
X69426000Y-99364800D03*
D17*
X67648000Y-87785000D03*
X67648000Y-89535000D03*
D18*
X75141000Y-80264000D03*
D19*
X72601000Y-80264000D03*
X70061000Y-80264000D03*
X67521000Y-80264000D03*
D20*
X72015000Y-106585000D03*
X76855000Y-106585000D03*
D21*
X71705000Y-109585000D03*
X77165000Y-109585000D03*
D18*
X64600000Y-109220000D03*
D19*
X67140000Y-109220000D03*
D14*
X76157000Y-83947000D03*
X76157000Y-84747000D03*
D12*
G36*
X76475612Y-84300370D02*
X76543563Y-84310449D01*
X76610199Y-84327141D01*
X76674878Y-84350283D01*
X76736978Y-84379654D01*
X76795899Y-84414970D01*
X76851075Y-84455892D01*
X76901975Y-84502024D01*
X76948107Y-84552924D01*
X76989029Y-84608100D01*
X77024345Y-84667021D01*
X77053716Y-84729121D01*
X77076858Y-84793800D01*
X77093550Y-84860436D01*
X77103629Y-84928387D01*
X77107000Y-84996999D01*
X77107000Y-84997001D01*
X77103629Y-85065613D01*
X77093550Y-85133564D01*
X77076858Y-85200200D01*
X77053716Y-85264879D01*
X77024345Y-85326979D01*
X76989029Y-85385900D01*
X76948107Y-85441076D01*
X76901975Y-85491976D01*
X76851075Y-85538108D01*
X76795899Y-85579030D01*
X76736978Y-85614346D01*
X76674878Y-85643717D01*
X76610199Y-85666859D01*
X76543563Y-85683551D01*
X76475612Y-85693630D01*
X76407000Y-85697001D01*
X75907000Y-85697001D01*
X75838388Y-85693630D01*
X75770437Y-85683551D01*
X75703801Y-85666859D01*
X75639122Y-85643717D01*
X75577022Y-85614346D01*
X75518101Y-85579030D01*
X75462925Y-85538108D01*
X75412025Y-85491976D01*
X75365893Y-85441076D01*
X75324971Y-85385900D01*
X75289655Y-85326979D01*
X75260284Y-85264879D01*
X75237142Y-85200200D01*
X75220450Y-85133564D01*
X75210371Y-85065613D01*
X75207000Y-84997001D01*
X75207000Y-84996999D01*
X75210371Y-84928387D01*
X75220450Y-84860436D01*
X75237142Y-84793800D01*
X75260284Y-84729121D01*
X75289655Y-84667021D01*
X75324971Y-84608100D01*
X75365893Y-84552924D01*
X75412025Y-84502024D01*
X75462925Y-84455892D01*
X75518101Y-84414970D01*
X75577022Y-84379654D01*
X75639122Y-84350283D01*
X75703801Y-84327141D01*
X75770437Y-84310449D01*
X75838388Y-84300370D01*
X75907000Y-84296999D01*
X76407000Y-84296999D01*
X76475612Y-84300370D01*
X76475612Y-84300370D01*
G37*
D13*
X76157000Y-84997000D03*
D12*
G36*
X76475612Y-83000370D02*
X76543563Y-83010449D01*
X76610199Y-83027141D01*
X76674878Y-83050283D01*
X76736978Y-83079654D01*
X76795899Y-83114970D01*
X76851075Y-83155892D01*
X76901975Y-83202024D01*
X76948107Y-83252924D01*
X76989029Y-83308100D01*
X77024345Y-83367021D01*
X77053716Y-83429121D01*
X77076858Y-83493800D01*
X77093550Y-83560436D01*
X77103629Y-83628387D01*
X77107000Y-83696999D01*
X77107000Y-83697001D01*
X77103629Y-83765613D01*
X77093550Y-83833564D01*
X77076858Y-83900200D01*
X77053716Y-83964879D01*
X77024345Y-84026979D01*
X76989029Y-84085900D01*
X76948107Y-84141076D01*
X76901975Y-84191976D01*
X76851075Y-84238108D01*
X76795899Y-84279030D01*
X76736978Y-84314346D01*
X76674878Y-84343717D01*
X76610199Y-84366859D01*
X76543563Y-84383551D01*
X76475612Y-84393630D01*
X76407000Y-84397001D01*
X75907000Y-84397001D01*
X75838388Y-84393630D01*
X75770437Y-84383551D01*
X75703801Y-84366859D01*
X75639122Y-84343717D01*
X75577022Y-84314346D01*
X75518101Y-84279030D01*
X75462925Y-84238108D01*
X75412025Y-84191976D01*
X75365893Y-84141076D01*
X75324971Y-84085900D01*
X75289655Y-84026979D01*
X75260284Y-83964879D01*
X75237142Y-83900200D01*
X75220450Y-83833564D01*
X75210371Y-83765613D01*
X75207000Y-83697001D01*
X75207000Y-83696999D01*
X75210371Y-83628387D01*
X75220450Y-83560436D01*
X75237142Y-83493800D01*
X75260284Y-83429121D01*
X75289655Y-83367021D01*
X75324971Y-83308100D01*
X75365893Y-83252924D01*
X75412025Y-83202024D01*
X75462925Y-83155892D01*
X75518101Y-83114970D01*
X75577022Y-83079654D01*
X75639122Y-83050283D01*
X75703801Y-83027141D01*
X75770437Y-83010449D01*
X75838388Y-83000370D01*
X75907000Y-82996999D01*
X76407000Y-82996999D01*
X76475612Y-83000370D01*
X76475612Y-83000370D01*
G37*
D13*
X76157000Y-83697000D03*
D12*
G36*
X65807612Y-82981370D02*
X65875563Y-82991449D01*
X65942199Y-83008141D01*
X66006878Y-83031283D01*
X66068978Y-83060654D01*
X66127899Y-83095970D01*
X66183075Y-83136892D01*
X66233975Y-83183024D01*
X66280107Y-83233924D01*
X66321029Y-83289100D01*
X66356345Y-83348021D01*
X66385716Y-83410121D01*
X66408858Y-83474800D01*
X66425550Y-83541436D01*
X66435629Y-83609387D01*
X66439000Y-83677999D01*
X66439000Y-83678001D01*
X66435629Y-83746613D01*
X66425550Y-83814564D01*
X66408858Y-83881200D01*
X66385716Y-83945879D01*
X66356345Y-84007979D01*
X66321029Y-84066900D01*
X66280107Y-84122076D01*
X66233975Y-84172976D01*
X66183075Y-84219108D01*
X66127899Y-84260030D01*
X66068978Y-84295346D01*
X66006878Y-84324717D01*
X65942199Y-84347859D01*
X65875563Y-84364551D01*
X65807612Y-84374630D01*
X65739000Y-84378001D01*
X65239000Y-84378001D01*
X65170388Y-84374630D01*
X65102437Y-84364551D01*
X65035801Y-84347859D01*
X64971122Y-84324717D01*
X64909022Y-84295346D01*
X64850101Y-84260030D01*
X64794925Y-84219108D01*
X64744025Y-84172976D01*
X64697893Y-84122076D01*
X64656971Y-84066900D01*
X64621655Y-84007979D01*
X64592284Y-83945879D01*
X64569142Y-83881200D01*
X64552450Y-83814564D01*
X64542371Y-83746613D01*
X64539000Y-83678001D01*
X64539000Y-83677999D01*
X64542371Y-83609387D01*
X64552450Y-83541436D01*
X64569142Y-83474800D01*
X64592284Y-83410121D01*
X64621655Y-83348021D01*
X64656971Y-83289100D01*
X64697893Y-83233924D01*
X64744025Y-83183024D01*
X64794925Y-83136892D01*
X64850101Y-83095970D01*
X64909022Y-83060654D01*
X64971122Y-83031283D01*
X65035801Y-83008141D01*
X65102437Y-82991449D01*
X65170388Y-82981370D01*
X65239000Y-82977999D01*
X65739000Y-82977999D01*
X65807612Y-82981370D01*
X65807612Y-82981370D01*
G37*
D13*
X65489000Y-83678000D03*
D12*
G36*
X65807612Y-84281370D02*
X65875563Y-84291449D01*
X65942199Y-84308141D01*
X66006878Y-84331283D01*
X66068978Y-84360654D01*
X66127899Y-84395970D01*
X66183075Y-84436892D01*
X66233975Y-84483024D01*
X66280107Y-84533924D01*
X66321029Y-84589100D01*
X66356345Y-84648021D01*
X66385716Y-84710121D01*
X66408858Y-84774800D01*
X66425550Y-84841436D01*
X66435629Y-84909387D01*
X66439000Y-84977999D01*
X66439000Y-84978001D01*
X66435629Y-85046613D01*
X66425550Y-85114564D01*
X66408858Y-85181200D01*
X66385716Y-85245879D01*
X66356345Y-85307979D01*
X66321029Y-85366900D01*
X66280107Y-85422076D01*
X66233975Y-85472976D01*
X66183075Y-85519108D01*
X66127899Y-85560030D01*
X66068978Y-85595346D01*
X66006878Y-85624717D01*
X65942199Y-85647859D01*
X65875563Y-85664551D01*
X65807612Y-85674630D01*
X65739000Y-85678001D01*
X65239000Y-85678001D01*
X65170388Y-85674630D01*
X65102437Y-85664551D01*
X65035801Y-85647859D01*
X64971122Y-85624717D01*
X64909022Y-85595346D01*
X64850101Y-85560030D01*
X64794925Y-85519108D01*
X64744025Y-85472976D01*
X64697893Y-85422076D01*
X64656971Y-85366900D01*
X64621655Y-85307979D01*
X64592284Y-85245879D01*
X64569142Y-85181200D01*
X64552450Y-85114564D01*
X64542371Y-85046613D01*
X64539000Y-84978001D01*
X64539000Y-84977999D01*
X64542371Y-84909387D01*
X64552450Y-84841436D01*
X64569142Y-84774800D01*
X64592284Y-84710121D01*
X64621655Y-84648021D01*
X64656971Y-84589100D01*
X64697893Y-84533924D01*
X64744025Y-84483024D01*
X64794925Y-84436892D01*
X64850101Y-84395970D01*
X64909022Y-84360654D01*
X64971122Y-84331283D01*
X65035801Y-84308141D01*
X65102437Y-84291449D01*
X65170388Y-84281370D01*
X65239000Y-84277999D01*
X65739000Y-84277999D01*
X65807612Y-84281370D01*
X65807612Y-84281370D01*
G37*
D13*
X65489000Y-84978000D03*
D14*
X65489000Y-84728000D03*
X65489000Y-83928000D03*
X73490000Y-83943000D03*
X73490000Y-84743000D03*
D12*
G36*
X73808612Y-84296370D02*
X73876563Y-84306449D01*
X73943199Y-84323141D01*
X74007878Y-84346283D01*
X74069978Y-84375654D01*
X74128899Y-84410970D01*
X74184075Y-84451892D01*
X74234975Y-84498024D01*
X74281107Y-84548924D01*
X74322029Y-84604100D01*
X74357345Y-84663021D01*
X74386716Y-84725121D01*
X74409858Y-84789800D01*
X74426550Y-84856436D01*
X74436629Y-84924387D01*
X74440000Y-84992999D01*
X74440000Y-84993001D01*
X74436629Y-85061613D01*
X74426550Y-85129564D01*
X74409858Y-85196200D01*
X74386716Y-85260879D01*
X74357345Y-85322979D01*
X74322029Y-85381900D01*
X74281107Y-85437076D01*
X74234975Y-85487976D01*
X74184075Y-85534108D01*
X74128899Y-85575030D01*
X74069978Y-85610346D01*
X74007878Y-85639717D01*
X73943199Y-85662859D01*
X73876563Y-85679551D01*
X73808612Y-85689630D01*
X73740000Y-85693001D01*
X73240000Y-85693001D01*
X73171388Y-85689630D01*
X73103437Y-85679551D01*
X73036801Y-85662859D01*
X72972122Y-85639717D01*
X72910022Y-85610346D01*
X72851101Y-85575030D01*
X72795925Y-85534108D01*
X72745025Y-85487976D01*
X72698893Y-85437076D01*
X72657971Y-85381900D01*
X72622655Y-85322979D01*
X72593284Y-85260879D01*
X72570142Y-85196200D01*
X72553450Y-85129564D01*
X72543371Y-85061613D01*
X72540000Y-84993001D01*
X72540000Y-84992999D01*
X72543371Y-84924387D01*
X72553450Y-84856436D01*
X72570142Y-84789800D01*
X72593284Y-84725121D01*
X72622655Y-84663021D01*
X72657971Y-84604100D01*
X72698893Y-84548924D01*
X72745025Y-84498024D01*
X72795925Y-84451892D01*
X72851101Y-84410970D01*
X72910022Y-84375654D01*
X72972122Y-84346283D01*
X73036801Y-84323141D01*
X73103437Y-84306449D01*
X73171388Y-84296370D01*
X73240000Y-84292999D01*
X73740000Y-84292999D01*
X73808612Y-84296370D01*
X73808612Y-84296370D01*
G37*
D13*
X73490000Y-84993000D03*
D12*
G36*
X73808612Y-82996370D02*
X73876563Y-83006449D01*
X73943199Y-83023141D01*
X74007878Y-83046283D01*
X74069978Y-83075654D01*
X74128899Y-83110970D01*
X74184075Y-83151892D01*
X74234975Y-83198024D01*
X74281107Y-83248924D01*
X74322029Y-83304100D01*
X74357345Y-83363021D01*
X74386716Y-83425121D01*
X74409858Y-83489800D01*
X74426550Y-83556436D01*
X74436629Y-83624387D01*
X74440000Y-83692999D01*
X74440000Y-83693001D01*
X74436629Y-83761613D01*
X74426550Y-83829564D01*
X74409858Y-83896200D01*
X74386716Y-83960879D01*
X74357345Y-84022979D01*
X74322029Y-84081900D01*
X74281107Y-84137076D01*
X74234975Y-84187976D01*
X74184075Y-84234108D01*
X74128899Y-84275030D01*
X74069978Y-84310346D01*
X74007878Y-84339717D01*
X73943199Y-84362859D01*
X73876563Y-84379551D01*
X73808612Y-84389630D01*
X73740000Y-84393001D01*
X73240000Y-84393001D01*
X73171388Y-84389630D01*
X73103437Y-84379551D01*
X73036801Y-84362859D01*
X72972122Y-84339717D01*
X72910022Y-84310346D01*
X72851101Y-84275030D01*
X72795925Y-84234108D01*
X72745025Y-84187976D01*
X72698893Y-84137076D01*
X72657971Y-84081900D01*
X72622655Y-84022979D01*
X72593284Y-83960879D01*
X72570142Y-83896200D01*
X72553450Y-83829564D01*
X72543371Y-83761613D01*
X72540000Y-83693001D01*
X72540000Y-83692999D01*
X72543371Y-83624387D01*
X72553450Y-83556436D01*
X72570142Y-83489800D01*
X72593284Y-83425121D01*
X72622655Y-83363021D01*
X72657971Y-83304100D01*
X72698893Y-83248924D01*
X72745025Y-83198024D01*
X72795925Y-83151892D01*
X72851101Y-83110970D01*
X72910022Y-83075654D01*
X72972122Y-83046283D01*
X73036801Y-83023141D01*
X73103437Y-83006449D01*
X73171388Y-82996370D01*
X73240000Y-82992999D01*
X73740000Y-82992999D01*
X73808612Y-82996370D01*
X73808612Y-82996370D01*
G37*
D13*
X73490000Y-83693000D03*
D12*
G36*
X71141612Y-82981370D02*
X71209563Y-82991449D01*
X71276199Y-83008141D01*
X71340878Y-83031283D01*
X71402978Y-83060654D01*
X71461899Y-83095970D01*
X71517075Y-83136892D01*
X71567975Y-83183024D01*
X71614107Y-83233924D01*
X71655029Y-83289100D01*
X71690345Y-83348021D01*
X71719716Y-83410121D01*
X71742858Y-83474800D01*
X71759550Y-83541436D01*
X71769629Y-83609387D01*
X71773000Y-83677999D01*
X71773000Y-83678001D01*
X71769629Y-83746613D01*
X71759550Y-83814564D01*
X71742858Y-83881200D01*
X71719716Y-83945879D01*
X71690345Y-84007979D01*
X71655029Y-84066900D01*
X71614107Y-84122076D01*
X71567975Y-84172976D01*
X71517075Y-84219108D01*
X71461899Y-84260030D01*
X71402978Y-84295346D01*
X71340878Y-84324717D01*
X71276199Y-84347859D01*
X71209563Y-84364551D01*
X71141612Y-84374630D01*
X71073000Y-84378001D01*
X70573000Y-84378001D01*
X70504388Y-84374630D01*
X70436437Y-84364551D01*
X70369801Y-84347859D01*
X70305122Y-84324717D01*
X70243022Y-84295346D01*
X70184101Y-84260030D01*
X70128925Y-84219108D01*
X70078025Y-84172976D01*
X70031893Y-84122076D01*
X69990971Y-84066900D01*
X69955655Y-84007979D01*
X69926284Y-83945879D01*
X69903142Y-83881200D01*
X69886450Y-83814564D01*
X69876371Y-83746613D01*
X69873000Y-83678001D01*
X69873000Y-83677999D01*
X69876371Y-83609387D01*
X69886450Y-83541436D01*
X69903142Y-83474800D01*
X69926284Y-83410121D01*
X69955655Y-83348021D01*
X69990971Y-83289100D01*
X70031893Y-83233924D01*
X70078025Y-83183024D01*
X70128925Y-83136892D01*
X70184101Y-83095970D01*
X70243022Y-83060654D01*
X70305122Y-83031283D01*
X70369801Y-83008141D01*
X70436437Y-82991449D01*
X70504388Y-82981370D01*
X70573000Y-82977999D01*
X71073000Y-82977999D01*
X71141612Y-82981370D01*
X71141612Y-82981370D01*
G37*
D13*
X70823000Y-83678000D03*
D12*
G36*
X71141612Y-84281370D02*
X71209563Y-84291449D01*
X71276199Y-84308141D01*
X71340878Y-84331283D01*
X71402978Y-84360654D01*
X71461899Y-84395970D01*
X71517075Y-84436892D01*
X71567975Y-84483024D01*
X71614107Y-84533924D01*
X71655029Y-84589100D01*
X71690345Y-84648021D01*
X71719716Y-84710121D01*
X71742858Y-84774800D01*
X71759550Y-84841436D01*
X71769629Y-84909387D01*
X71773000Y-84977999D01*
X71773000Y-84978001D01*
X71769629Y-85046613D01*
X71759550Y-85114564D01*
X71742858Y-85181200D01*
X71719716Y-85245879D01*
X71690345Y-85307979D01*
X71655029Y-85366900D01*
X71614107Y-85422076D01*
X71567975Y-85472976D01*
X71517075Y-85519108D01*
X71461899Y-85560030D01*
X71402978Y-85595346D01*
X71340878Y-85624717D01*
X71276199Y-85647859D01*
X71209563Y-85664551D01*
X71141612Y-85674630D01*
X71073000Y-85678001D01*
X70573000Y-85678001D01*
X70504388Y-85674630D01*
X70436437Y-85664551D01*
X70369801Y-85647859D01*
X70305122Y-85624717D01*
X70243022Y-85595346D01*
X70184101Y-85560030D01*
X70128925Y-85519108D01*
X70078025Y-85472976D01*
X70031893Y-85422076D01*
X69990971Y-85366900D01*
X69955655Y-85307979D01*
X69926284Y-85245879D01*
X69903142Y-85181200D01*
X69886450Y-85114564D01*
X69876371Y-85046613D01*
X69873000Y-84978001D01*
X69873000Y-84977999D01*
X69876371Y-84909387D01*
X69886450Y-84841436D01*
X69903142Y-84774800D01*
X69926284Y-84710121D01*
X69955655Y-84648021D01*
X69990971Y-84589100D01*
X70031893Y-84533924D01*
X70078025Y-84483024D01*
X70128925Y-84436892D01*
X70184101Y-84395970D01*
X70243022Y-84360654D01*
X70305122Y-84331283D01*
X70369801Y-84308141D01*
X70436437Y-84291449D01*
X70504388Y-84281370D01*
X70573000Y-84277999D01*
X71073000Y-84277999D01*
X71141612Y-84281370D01*
X71141612Y-84281370D01*
G37*
D13*
X70823000Y-84978000D03*
D14*
X70823000Y-84728000D03*
X70823000Y-83928000D03*
X68156000Y-83943000D03*
X68156000Y-84743000D03*
D12*
G36*
X68474612Y-84296370D02*
X68542563Y-84306449D01*
X68609199Y-84323141D01*
X68673878Y-84346283D01*
X68735978Y-84375654D01*
X68794899Y-84410970D01*
X68850075Y-84451892D01*
X68900975Y-84498024D01*
X68947107Y-84548924D01*
X68988029Y-84604100D01*
X69023345Y-84663021D01*
X69052716Y-84725121D01*
X69075858Y-84789800D01*
X69092550Y-84856436D01*
X69102629Y-84924387D01*
X69106000Y-84992999D01*
X69106000Y-84993001D01*
X69102629Y-85061613D01*
X69092550Y-85129564D01*
X69075858Y-85196200D01*
X69052716Y-85260879D01*
X69023345Y-85322979D01*
X68988029Y-85381900D01*
X68947107Y-85437076D01*
X68900975Y-85487976D01*
X68850075Y-85534108D01*
X68794899Y-85575030D01*
X68735978Y-85610346D01*
X68673878Y-85639717D01*
X68609199Y-85662859D01*
X68542563Y-85679551D01*
X68474612Y-85689630D01*
X68406000Y-85693001D01*
X67906000Y-85693001D01*
X67837388Y-85689630D01*
X67769437Y-85679551D01*
X67702801Y-85662859D01*
X67638122Y-85639717D01*
X67576022Y-85610346D01*
X67517101Y-85575030D01*
X67461925Y-85534108D01*
X67411025Y-85487976D01*
X67364893Y-85437076D01*
X67323971Y-85381900D01*
X67288655Y-85322979D01*
X67259284Y-85260879D01*
X67236142Y-85196200D01*
X67219450Y-85129564D01*
X67209371Y-85061613D01*
X67206000Y-84993001D01*
X67206000Y-84992999D01*
X67209371Y-84924387D01*
X67219450Y-84856436D01*
X67236142Y-84789800D01*
X67259284Y-84725121D01*
X67288655Y-84663021D01*
X67323971Y-84604100D01*
X67364893Y-84548924D01*
X67411025Y-84498024D01*
X67461925Y-84451892D01*
X67517101Y-84410970D01*
X67576022Y-84375654D01*
X67638122Y-84346283D01*
X67702801Y-84323141D01*
X67769437Y-84306449D01*
X67837388Y-84296370D01*
X67906000Y-84292999D01*
X68406000Y-84292999D01*
X68474612Y-84296370D01*
X68474612Y-84296370D01*
G37*
D13*
X68156000Y-84993000D03*
D12*
G36*
X68474612Y-82996370D02*
X68542563Y-83006449D01*
X68609199Y-83023141D01*
X68673878Y-83046283D01*
X68735978Y-83075654D01*
X68794899Y-83110970D01*
X68850075Y-83151892D01*
X68900975Y-83198024D01*
X68947107Y-83248924D01*
X68988029Y-83304100D01*
X69023345Y-83363021D01*
X69052716Y-83425121D01*
X69075858Y-83489800D01*
X69092550Y-83556436D01*
X69102629Y-83624387D01*
X69106000Y-83692999D01*
X69106000Y-83693001D01*
X69102629Y-83761613D01*
X69092550Y-83829564D01*
X69075858Y-83896200D01*
X69052716Y-83960879D01*
X69023345Y-84022979D01*
X68988029Y-84081900D01*
X68947107Y-84137076D01*
X68900975Y-84187976D01*
X68850075Y-84234108D01*
X68794899Y-84275030D01*
X68735978Y-84310346D01*
X68673878Y-84339717D01*
X68609199Y-84362859D01*
X68542563Y-84379551D01*
X68474612Y-84389630D01*
X68406000Y-84393001D01*
X67906000Y-84393001D01*
X67837388Y-84389630D01*
X67769437Y-84379551D01*
X67702801Y-84362859D01*
X67638122Y-84339717D01*
X67576022Y-84310346D01*
X67517101Y-84275030D01*
X67461925Y-84234108D01*
X67411025Y-84187976D01*
X67364893Y-84137076D01*
X67323971Y-84081900D01*
X67288655Y-84022979D01*
X67259284Y-83960879D01*
X67236142Y-83896200D01*
X67219450Y-83829564D01*
X67209371Y-83761613D01*
X67206000Y-83693001D01*
X67206000Y-83692999D01*
X67209371Y-83624387D01*
X67219450Y-83556436D01*
X67236142Y-83489800D01*
X67259284Y-83425121D01*
X67288655Y-83363021D01*
X67323971Y-83304100D01*
X67364893Y-83248924D01*
X67411025Y-83198024D01*
X67461925Y-83151892D01*
X67517101Y-83110970D01*
X67576022Y-83075654D01*
X67638122Y-83046283D01*
X67702801Y-83023141D01*
X67769437Y-83006449D01*
X67837388Y-82996370D01*
X67906000Y-82992999D01*
X68406000Y-82992999D01*
X68474612Y-82996370D01*
X68474612Y-82996370D01*
G37*
D13*
X68156000Y-83693000D03*
D12*
G36*
X77237612Y-100552370D02*
X77305563Y-100562449D01*
X77372199Y-100579141D01*
X77436878Y-100602283D01*
X77498978Y-100631654D01*
X77557899Y-100666970D01*
X77613075Y-100707892D01*
X77663975Y-100754024D01*
X77710107Y-100804924D01*
X77751029Y-100860100D01*
X77786345Y-100919021D01*
X77815716Y-100981121D01*
X77838858Y-101045800D01*
X77855550Y-101112436D01*
X77865629Y-101180387D01*
X77869000Y-101248999D01*
X77869000Y-101249001D01*
X77865629Y-101317613D01*
X77855550Y-101385564D01*
X77838858Y-101452200D01*
X77815716Y-101516879D01*
X77786345Y-101578979D01*
X77751029Y-101637900D01*
X77710107Y-101693076D01*
X77663975Y-101743976D01*
X77613075Y-101790108D01*
X77557899Y-101831030D01*
X77498978Y-101866346D01*
X77436878Y-101895717D01*
X77372199Y-101918859D01*
X77305563Y-101935551D01*
X77237612Y-101945630D01*
X77169000Y-101949001D01*
X76669000Y-101949001D01*
X76600388Y-101945630D01*
X76532437Y-101935551D01*
X76465801Y-101918859D01*
X76401122Y-101895717D01*
X76339022Y-101866346D01*
X76280101Y-101831030D01*
X76224925Y-101790108D01*
X76174025Y-101743976D01*
X76127893Y-101693076D01*
X76086971Y-101637900D01*
X76051655Y-101578979D01*
X76022284Y-101516879D01*
X75999142Y-101452200D01*
X75982450Y-101385564D01*
X75972371Y-101317613D01*
X75969000Y-101249001D01*
X75969000Y-101248999D01*
X75972371Y-101180387D01*
X75982450Y-101112436D01*
X75999142Y-101045800D01*
X76022284Y-100981121D01*
X76051655Y-100919021D01*
X76086971Y-100860100D01*
X76127893Y-100804924D01*
X76174025Y-100754024D01*
X76224925Y-100707892D01*
X76280101Y-100666970D01*
X76339022Y-100631654D01*
X76401122Y-100602283D01*
X76465801Y-100579141D01*
X76532437Y-100562449D01*
X76600388Y-100552370D01*
X76669000Y-100548999D01*
X77169000Y-100548999D01*
X77237612Y-100552370D01*
X77237612Y-100552370D01*
G37*
D13*
X76919000Y-101249000D03*
D12*
G36*
X77237612Y-99252370D02*
X77305563Y-99262449D01*
X77372199Y-99279141D01*
X77436878Y-99302283D01*
X77498978Y-99331654D01*
X77557899Y-99366970D01*
X77613075Y-99407892D01*
X77663975Y-99454024D01*
X77710107Y-99504924D01*
X77751029Y-99560100D01*
X77786345Y-99619021D01*
X77815716Y-99681121D01*
X77838858Y-99745800D01*
X77855550Y-99812436D01*
X77865629Y-99880387D01*
X77869000Y-99948999D01*
X77869000Y-99949001D01*
X77865629Y-100017613D01*
X77855550Y-100085564D01*
X77838858Y-100152200D01*
X77815716Y-100216879D01*
X77786345Y-100278979D01*
X77751029Y-100337900D01*
X77710107Y-100393076D01*
X77663975Y-100443976D01*
X77613075Y-100490108D01*
X77557899Y-100531030D01*
X77498978Y-100566346D01*
X77436878Y-100595717D01*
X77372199Y-100618859D01*
X77305563Y-100635551D01*
X77237612Y-100645630D01*
X77169000Y-100649001D01*
X76669000Y-100649001D01*
X76600388Y-100645630D01*
X76532437Y-100635551D01*
X76465801Y-100618859D01*
X76401122Y-100595717D01*
X76339022Y-100566346D01*
X76280101Y-100531030D01*
X76224925Y-100490108D01*
X76174025Y-100443976D01*
X76127893Y-100393076D01*
X76086971Y-100337900D01*
X76051655Y-100278979D01*
X76022284Y-100216879D01*
X75999142Y-100152200D01*
X75982450Y-100085564D01*
X75972371Y-100017613D01*
X75969000Y-99949001D01*
X75969000Y-99948999D01*
X75972371Y-99880387D01*
X75982450Y-99812436D01*
X75999142Y-99745800D01*
X76022284Y-99681121D01*
X76051655Y-99619021D01*
X76086971Y-99560100D01*
X76127893Y-99504924D01*
X76174025Y-99454024D01*
X76224925Y-99407892D01*
X76280101Y-99366970D01*
X76339022Y-99331654D01*
X76401122Y-99302283D01*
X76465801Y-99279141D01*
X76532437Y-99262449D01*
X76600388Y-99252370D01*
X76669000Y-99248999D01*
X77169000Y-99248999D01*
X77237612Y-99252370D01*
X77237612Y-99252370D01*
G37*
D13*
X76919000Y-99949000D03*
D14*
X76919000Y-100199000D03*
X76919000Y-100999000D03*
D22*
X65632000Y-97089000D03*
X65632000Y-95189000D03*
X67632000Y-96139000D03*
D17*
X67267000Y-103265000D03*
X67267000Y-105015000D03*
X69680000Y-103265000D03*
X69680000Y-105015000D03*
X73871000Y-90932000D03*
X73871000Y-89182000D03*
X69172000Y-97014000D03*
X69172000Y-95264000D03*
X69172000Y-93853000D03*
X69172000Y-92103000D03*
D23*
X69639000Y-87757000D03*
X69639000Y-89657000D03*
X71839000Y-89657000D03*
X71839000Y-88707000D03*
X71839000Y-87757000D03*
D24*
X75396400Y-97573000D03*
X74896400Y-97573000D03*
X74396400Y-97573000D03*
X73896400Y-97573000D03*
X73396400Y-97573000D03*
X72896400Y-97573000D03*
X72396400Y-97573000D03*
D25*
X71446400Y-96623000D03*
X71446400Y-96123000D03*
X71446400Y-95623000D03*
X71446400Y-95123000D03*
X71446400Y-94623000D03*
X71446400Y-94123000D03*
X71446400Y-93623000D03*
D24*
X72396400Y-92673000D03*
X72896400Y-92673000D03*
X73396400Y-92673000D03*
X73896400Y-92673000D03*
X74396400Y-92673000D03*
X74896400Y-92673000D03*
X75396400Y-92673000D03*
D25*
X76346400Y-93623000D03*
X76346400Y-94123000D03*
X76346400Y-94623000D03*
X76346400Y-95123000D03*
X76346400Y-95623000D03*
X76346400Y-96123000D03*
X76346400Y-96623000D03*
D26*
X73896400Y-95123000D03*
D27*
X76284000Y-89027000D03*
X76284000Y-91127000D03*
M02*
