G04 #@! TF.GenerationSoftware,KiCad,Pcbnew,5.0.0-rc1-44a33f2~62~ubuntu16.04.1*
G04 #@! TF.CreationDate,2018-04-24T12:49:53+03:00*
G04 #@! TF.ProjectId,nrf52board,6E72663532626F6172642E6B69636164,rev?*
G04 #@! TF.SameCoordinates,Original*
G04 #@! TF.FileFunction,Soldermask,Top*
G04 #@! TF.FilePolarity,Negative*
%FSLAX46Y46*%
G04 Gerber Fmt 4.6, Leading zero omitted, Abs format (unit mm)*
G04 Created by KiCad (PCBNEW 5.0.0-rc1-44a33f2~62~ubuntu16.04.1) date Tue Apr 24 12:49:53 2018*
%MOMM*%
%LPD*%
G01*
G04 APERTURE LIST*
%ADD10C,2.200000*%
%ADD11R,1.900000X1.360000*%
%ADD12R,1.360000X1.900000*%
%ADD13R,1.400000X1.070000*%
%ADD14R,1.070000X1.400000*%
%ADD15R,2.100000X2.100000*%
%ADD16O,2.100000X2.100000*%
%ADD17R,1.750000X2.400000*%
%ADD18R,2.225000X1.100000*%
%ADD19R,2.400000X1.900000*%
%ADD20R,0.800000X2.050000*%
%ADD21O,1.500000X1.900000*%
%ADD22O,1.750000X2.100000*%
%ADD23R,1.830000X2.900000*%
%ADD24R,1.400000X1.950000*%
%ADD25R,2.400000X1.400000*%
G04 APERTURE END LIST*
D10*
X82380000Y-54610000D03*
X82380000Y-57150000D03*
X59520000Y-54610000D03*
X59520000Y-57150000D03*
X59520000Y-59690000D03*
X59520000Y-62230000D03*
X59520000Y-64770000D03*
X59520000Y-67310000D03*
X59520000Y-69850000D03*
X59520000Y-72390000D03*
X59520000Y-74930000D03*
X59520000Y-77470000D03*
X59520000Y-80010000D03*
X59520000Y-82550000D03*
X59520000Y-85090000D03*
X59520000Y-87630000D03*
X59520000Y-90170000D03*
X59520000Y-92710000D03*
X59520000Y-95250000D03*
X59520000Y-97790000D03*
X59520000Y-100330000D03*
X82380000Y-100330000D03*
X82380000Y-97790000D03*
X82380000Y-95250000D03*
X82380000Y-92710000D03*
X82380000Y-90170000D03*
X82380000Y-87630000D03*
X82380000Y-85090000D03*
X82380000Y-82550000D03*
X82380000Y-80010000D03*
X82380000Y-77470000D03*
X82380000Y-74930000D03*
X82380000Y-72390000D03*
X82380000Y-69850000D03*
X82380000Y-67310000D03*
X82380000Y-64770000D03*
X82380000Y-62230000D03*
X82380000Y-59690000D03*
D11*
X79876000Y-54610000D03*
X79876000Y-55880000D03*
X79876000Y-58420000D03*
X79876000Y-59690000D03*
X79876000Y-60960000D03*
X79876000Y-62230000D03*
X79876000Y-63500000D03*
X79876000Y-64770000D03*
X79876000Y-66040000D03*
X79876000Y-67310000D03*
X79876000Y-68580000D03*
X79876000Y-69850000D03*
X79876000Y-71120000D03*
X79876000Y-72390000D03*
X79876000Y-73660000D03*
X79876000Y-74930000D03*
D12*
X77916000Y-76820000D03*
X76646000Y-76820000D03*
X75376000Y-76820000D03*
X74106000Y-76820000D03*
X72836000Y-76820000D03*
X71566000Y-76820000D03*
X70296000Y-76820000D03*
X69026000Y-76820000D03*
X67756000Y-76820000D03*
X66486000Y-76820000D03*
X65216000Y-76820000D03*
X63946000Y-76820000D03*
D11*
X61976000Y-55880000D03*
X61976000Y-58420000D03*
X61976000Y-59690000D03*
X61976000Y-60960000D03*
X61976000Y-62230000D03*
X61976000Y-63500000D03*
X61976000Y-64770000D03*
X61976000Y-66040000D03*
X61976000Y-67310000D03*
X61976000Y-68580000D03*
X61976000Y-69850000D03*
X61976000Y-71120000D03*
X61976000Y-72390000D03*
X61976000Y-73660000D03*
X61976000Y-74930000D03*
X61976000Y-54610000D03*
D13*
X71966000Y-84949000D03*
X71966000Y-83199000D03*
D14*
X71232000Y-103505000D03*
X72982000Y-103505000D03*
X76030000Y-83312000D03*
X74280000Y-83312000D03*
D15*
X75141000Y-80264000D03*
D16*
X72601000Y-80264000D03*
X70061000Y-80264000D03*
X67521000Y-80264000D03*
D17*
X77185000Y-108655000D03*
X71705000Y-108655000D03*
D18*
X71485000Y-107905000D03*
X77435000Y-107905000D03*
D19*
X71585000Y-106605000D03*
X77335000Y-106585000D03*
D20*
X73135000Y-106705000D03*
X73785000Y-106705000D03*
X74435000Y-106705000D03*
X75085000Y-106705000D03*
X75735000Y-106705000D03*
D21*
X72015000Y-106585000D03*
X76855000Y-106585000D03*
D22*
X71705000Y-109585000D03*
X77165000Y-109585000D03*
D23*
X73475000Y-109855000D03*
X75395000Y-109855000D03*
D15*
X64600000Y-109220000D03*
D16*
X67140000Y-109220000D03*
D14*
X79445000Y-104140000D03*
X77695000Y-104140000D03*
X70047000Y-84709000D03*
X68297000Y-84709000D03*
X76002000Y-84963000D03*
X74252000Y-84963000D03*
D24*
X82077000Y-109728000D03*
X82077000Y-104478000D03*
X83777000Y-104478000D03*
X83777000Y-109728000D03*
D25*
X79200000Y-101500000D03*
X79200000Y-99500000D03*
X79200000Y-97500000D03*
X79200000Y-95500000D03*
X79200000Y-93500000D03*
X79200000Y-91500000D03*
X79200000Y-89500000D03*
X79200000Y-87500000D03*
X63200000Y-87500000D03*
X63200000Y-89500000D03*
X63200000Y-91500000D03*
X63200000Y-93500000D03*
X63200000Y-95500000D03*
X63200000Y-97500000D03*
X63200000Y-99500000D03*
X63200000Y-101500000D03*
D14*
X70047000Y-83312000D03*
X68297000Y-83312000D03*
D13*
X66759000Y-83185000D03*
X66759000Y-84935000D03*
D24*
X59901000Y-104478000D03*
X59901000Y-109728000D03*
X58201000Y-109728000D03*
X58201000Y-104478000D03*
M02*
