G04 #@! TF.GenerationSoftware,KiCad,Pcbnew,5.0.0-rc1-44a33f2~62~ubuntu16.04.1*
G04 #@! TF.CreationDate,2018-04-24T12:49:53+03:00*
G04 #@! TF.ProjectId,nrf52board,6E72663532626F6172642E6B69636164,rev?*
G04 #@! TF.SameCoordinates,Original*
G04 #@! TF.FileFunction,Legend,Top*
G04 #@! TF.FilePolarity,Positive*
%FSLAX46Y46*%
G04 Gerber Fmt 4.6, Leading zero omitted, Abs format (unit mm)*
G04 Created by KiCad (PCBNEW 5.0.0-rc1-44a33f2~62~ubuntu16.04.1) date Tue Apr 24 12:49:53 2018*
%MOMM*%
%LPD*%
G01*
G04 APERTURE LIST*
%ADD10C,0.150000*%
%ADD11C,0.120000*%
%ADD12C,0.100000*%
G04 APERTURE END LIST*
D10*
X58250000Y-53340000D02*
X83650000Y-53340000D01*
X83650000Y-53340000D02*
X83650000Y-101600000D01*
X83650000Y-101600000D02*
X58250000Y-101600000D01*
X58250000Y-101600000D02*
X58250000Y-53340000D01*
X62176000Y-76630000D02*
X62176000Y-47930000D01*
X79676000Y-76630000D02*
X62176000Y-76630000D01*
X79676000Y-47930000D02*
X79676000Y-76630000D01*
X62176000Y-47930000D02*
X79676000Y-47930000D01*
D11*
X71456000Y-84294000D02*
X71456000Y-83854000D01*
X72476000Y-84294000D02*
X72476000Y-83854000D01*
X72907000Y-102745000D02*
X70637000Y-102745000D01*
X70637000Y-102745000D02*
X70637000Y-104265000D01*
X70637000Y-104265000D02*
X72907000Y-104265000D01*
X73685000Y-84072000D02*
X75955000Y-84072000D01*
X73685000Y-82552000D02*
X73685000Y-84072000D01*
X75955000Y-82552000D02*
X73685000Y-82552000D01*
X66191000Y-78934000D02*
X66191000Y-81594000D01*
X73871000Y-78934000D02*
X66191000Y-78934000D01*
X73871000Y-81594000D02*
X66191000Y-81594000D01*
X73871000Y-78934000D02*
X73871000Y-81594000D01*
X75141000Y-78934000D02*
X76471000Y-78934000D01*
X76471000Y-78934000D02*
X76471000Y-80264000D01*
X70285000Y-108405000D02*
X70285000Y-106855000D01*
X70285000Y-108405000D02*
X70585000Y-108405000D01*
X70585000Y-111205000D02*
X70585000Y-108405000D01*
X78585000Y-108405000D02*
X78585000Y-106855000D01*
X78285000Y-108405000D02*
X78585000Y-108405000D01*
X78285000Y-111205000D02*
X78285000Y-108405000D01*
X73535000Y-105155000D02*
X73135000Y-105605000D01*
X72735000Y-105155000D02*
X73535000Y-105155000D01*
X73135000Y-105605000D02*
X72735000Y-105155000D01*
X68470000Y-110550000D02*
X68470000Y-107890000D01*
X65870000Y-110550000D02*
X68470000Y-110550000D01*
X65870000Y-107890000D02*
X68470000Y-107890000D01*
X65870000Y-110550000D02*
X65870000Y-107890000D01*
X64600000Y-110550000D02*
X63270000Y-110550000D01*
X63270000Y-110550000D02*
X63270000Y-109220000D01*
X78790000Y-104650000D02*
X78350000Y-104650000D01*
X78790000Y-103630000D02*
X78350000Y-103630000D01*
X68952000Y-85219000D02*
X69392000Y-85219000D01*
X68952000Y-84199000D02*
X69392000Y-84199000D01*
X75347000Y-85473000D02*
X74907000Y-85473000D01*
X75347000Y-84453000D02*
X74907000Y-84453000D01*
X84777000Y-109453000D02*
X84777000Y-108528000D01*
X81077000Y-109453000D02*
X81077000Y-104753000D01*
X82652000Y-104653000D02*
X83202000Y-104653000D01*
X82652000Y-109553000D02*
X83202000Y-109553000D01*
X84777000Y-105678000D02*
X84777000Y-104753000D01*
D12*
X79320000Y-102620000D02*
X71200000Y-102620000D01*
X65200000Y-86380000D02*
X63080000Y-86380000D01*
X63080000Y-86380000D02*
X63080000Y-86550000D01*
X79320000Y-86380000D02*
X77200000Y-86380000D01*
X79320000Y-86380000D02*
X79320000Y-86550000D01*
X65200000Y-102620000D02*
X63080000Y-102620000D01*
X63080000Y-102620000D02*
X63080000Y-102450000D01*
D11*
X68372000Y-84072000D02*
X70642000Y-84072000D01*
X70642000Y-84072000D02*
X70642000Y-82552000D01*
X70642000Y-82552000D02*
X68372000Y-82552000D01*
X67269000Y-83840000D02*
X67269000Y-84280000D01*
X66249000Y-83840000D02*
X66249000Y-84280000D01*
X57201000Y-104753000D02*
X57201000Y-105678000D01*
X60901000Y-104753000D02*
X60901000Y-109453000D01*
X59326000Y-109553000D02*
X58776000Y-109553000D01*
X59326000Y-104653000D02*
X58776000Y-104653000D01*
X57201000Y-108528000D02*
X57201000Y-109453000D01*
D10*
X80054380Y-80771904D02*
X80863904Y-80771904D01*
X80959142Y-80724285D01*
X81006761Y-80676666D01*
X81054380Y-80581428D01*
X81054380Y-80390952D01*
X81006761Y-80295714D01*
X80959142Y-80248095D01*
X80863904Y-80200476D01*
X80054380Y-80200476D01*
X81054380Y-79200476D02*
X81054380Y-79771904D01*
X81054380Y-79486190D02*
X80054380Y-79486190D01*
X80197238Y-79581428D01*
X80292476Y-79676666D01*
X80340095Y-79771904D01*
X61298095Y-77430380D02*
X61298095Y-78239904D01*
X61345714Y-78335142D01*
X61393333Y-78382761D01*
X61488571Y-78430380D01*
X61679047Y-78430380D01*
X61774285Y-78382761D01*
X61821904Y-78335142D01*
X61869523Y-78239904D01*
X61869523Y-77430380D01*
X62298095Y-77525619D02*
X62345714Y-77478000D01*
X62440952Y-77430380D01*
X62679047Y-77430380D01*
X62774285Y-77478000D01*
X62821904Y-77525619D01*
X62869523Y-77620857D01*
X62869523Y-77716095D01*
X62821904Y-77858952D01*
X62250476Y-78430380D01*
X62869523Y-78430380D01*
X78038142Y-84843857D02*
X78085761Y-84891476D01*
X78133380Y-85034333D01*
X78133380Y-85129571D01*
X78085761Y-85272428D01*
X77990523Y-85367666D01*
X77895285Y-85415285D01*
X77704809Y-85462904D01*
X77561952Y-85462904D01*
X77371476Y-85415285D01*
X77276238Y-85367666D01*
X77181000Y-85272428D01*
X77133380Y-85129571D01*
X77133380Y-85034333D01*
X77181000Y-84891476D01*
X77228619Y-84843857D01*
X78133380Y-83891476D02*
X78133380Y-84462904D01*
X78133380Y-84177190D02*
X77133380Y-84177190D01*
X77276238Y-84272428D01*
X77371476Y-84367666D01*
X77419095Y-84462904D01*
X77133380Y-83272428D02*
X77133380Y-83177190D01*
X77181000Y-83081952D01*
X77228619Y-83034333D01*
X77323857Y-82986714D01*
X77514333Y-82939095D01*
X77752428Y-82939095D01*
X77942904Y-82986714D01*
X78038142Y-83034333D01*
X78085761Y-83081952D01*
X78133380Y-83177190D01*
X78133380Y-83272428D01*
X78085761Y-83367666D01*
X78038142Y-83415285D01*
X77942904Y-83462904D01*
X77752428Y-83510523D01*
X77514333Y-83510523D01*
X77323857Y-83462904D01*
X77228619Y-83415285D01*
X77181000Y-83367666D01*
X77133380Y-83272428D01*
X68433904Y-103957380D02*
X68433904Y-102957380D01*
X68672000Y-102957380D01*
X68814857Y-103005000D01*
X68910095Y-103100238D01*
X68957714Y-103195476D01*
X69005333Y-103385952D01*
X69005333Y-103528809D01*
X68957714Y-103719285D01*
X68910095Y-103814523D01*
X68814857Y-103909761D01*
X68672000Y-103957380D01*
X68433904Y-103957380D01*
X69957714Y-103957380D02*
X69386285Y-103957380D01*
X69672000Y-103957380D02*
X69672000Y-102957380D01*
X69576761Y-103100238D01*
X69481523Y-103195476D01*
X69386285Y-103243095D01*
X78593904Y-83764380D02*
X78593904Y-82764380D01*
X78832000Y-82764380D01*
X78974857Y-82812000D01*
X79070095Y-82907238D01*
X79117714Y-83002476D01*
X79165333Y-83192952D01*
X79165333Y-83335809D01*
X79117714Y-83526285D01*
X79070095Y-83621523D01*
X78974857Y-83716761D01*
X78832000Y-83764380D01*
X78593904Y-83764380D01*
X79498666Y-82764380D02*
X80117714Y-82764380D01*
X79784380Y-83145333D01*
X79927238Y-83145333D01*
X80022476Y-83192952D01*
X80070095Y-83240571D01*
X80117714Y-83335809D01*
X80117714Y-83573904D01*
X80070095Y-83669142D01*
X80022476Y-83716761D01*
X79927238Y-83764380D01*
X79641523Y-83764380D01*
X79546285Y-83716761D01*
X79498666Y-83669142D01*
X77133380Y-80978333D02*
X77847666Y-80978333D01*
X77990523Y-81025952D01*
X78085761Y-81121190D01*
X78133380Y-81264047D01*
X78133380Y-81359285D01*
X78133380Y-79978333D02*
X78133380Y-80549761D01*
X78133380Y-80264047D02*
X77133380Y-80264047D01*
X77276238Y-80359285D01*
X77371476Y-80454523D01*
X77419095Y-80549761D01*
X74172666Y-104354380D02*
X74172666Y-105068666D01*
X74125047Y-105211523D01*
X74029809Y-105306761D01*
X73886952Y-105354380D01*
X73791714Y-105354380D01*
X74601238Y-104449619D02*
X74648857Y-104402000D01*
X74744095Y-104354380D01*
X74982190Y-104354380D01*
X75077428Y-104402000D01*
X75125047Y-104449619D01*
X75172666Y-104544857D01*
X75172666Y-104640095D01*
X75125047Y-104782952D01*
X74553619Y-105354380D01*
X75172666Y-105354380D01*
X65028666Y-106513380D02*
X65028666Y-107227666D01*
X64981047Y-107370523D01*
X64885809Y-107465761D01*
X64742952Y-107513380D01*
X64647714Y-107513380D01*
X65409619Y-106513380D02*
X66028666Y-106513380D01*
X65695333Y-106894333D01*
X65838190Y-106894333D01*
X65933428Y-106941952D01*
X65981047Y-106989571D01*
X66028666Y-107084809D01*
X66028666Y-107322904D01*
X65981047Y-107418142D01*
X65933428Y-107465761D01*
X65838190Y-107513380D01*
X65552476Y-107513380D01*
X65457238Y-107465761D01*
X65409619Y-107418142D01*
X75863333Y-104084380D02*
X75530000Y-103608190D01*
X75291904Y-104084380D02*
X75291904Y-103084380D01*
X75672857Y-103084380D01*
X75768095Y-103132000D01*
X75815714Y-103179619D01*
X75863333Y-103274857D01*
X75863333Y-103417714D01*
X75815714Y-103512952D01*
X75768095Y-103560571D01*
X75672857Y-103608190D01*
X75291904Y-103608190D01*
X76244285Y-103179619D02*
X76291904Y-103132000D01*
X76387142Y-103084380D01*
X76625238Y-103084380D01*
X76720476Y-103132000D01*
X76768095Y-103179619D01*
X76815714Y-103274857D01*
X76815714Y-103370095D01*
X76768095Y-103512952D01*
X76196666Y-104084380D01*
X76815714Y-104084380D01*
X64687333Y-85669380D02*
X64354000Y-85193190D01*
X64115904Y-85669380D02*
X64115904Y-84669380D01*
X64496857Y-84669380D01*
X64592095Y-84717000D01*
X64639714Y-84764619D01*
X64687333Y-84859857D01*
X64687333Y-85002714D01*
X64639714Y-85097952D01*
X64592095Y-85145571D01*
X64496857Y-85193190D01*
X64115904Y-85193190D01*
X65592095Y-84669380D02*
X65115904Y-84669380D01*
X65068285Y-85145571D01*
X65115904Y-85097952D01*
X65211142Y-85050333D01*
X65449238Y-85050333D01*
X65544476Y-85097952D01*
X65592095Y-85145571D01*
X65639714Y-85240809D01*
X65639714Y-85478904D01*
X65592095Y-85574142D01*
X65544476Y-85621761D01*
X65449238Y-85669380D01*
X65211142Y-85669380D01*
X65115904Y-85621761D01*
X65068285Y-85574142D01*
X79165333Y-85542380D02*
X78832000Y-85066190D01*
X78593904Y-85542380D02*
X78593904Y-84542380D01*
X78974857Y-84542380D01*
X79070095Y-84590000D01*
X79117714Y-84637619D01*
X79165333Y-84732857D01*
X79165333Y-84875714D01*
X79117714Y-84970952D01*
X79070095Y-85018571D01*
X78974857Y-85066190D01*
X78593904Y-85066190D01*
X79736761Y-84970952D02*
X79641523Y-84923333D01*
X79593904Y-84875714D01*
X79546285Y-84780476D01*
X79546285Y-84732857D01*
X79593904Y-84637619D01*
X79641523Y-84590000D01*
X79736761Y-84542380D01*
X79927238Y-84542380D01*
X80022476Y-84590000D01*
X80070095Y-84637619D01*
X80117714Y-84732857D01*
X80117714Y-84780476D01*
X80070095Y-84875714D01*
X80022476Y-84923333D01*
X79927238Y-84970952D01*
X79736761Y-84970952D01*
X79641523Y-85018571D01*
X79593904Y-85066190D01*
X79546285Y-85161428D01*
X79546285Y-85351904D01*
X79593904Y-85447142D01*
X79641523Y-85494761D01*
X79736761Y-85542380D01*
X79927238Y-85542380D01*
X80022476Y-85494761D01*
X80070095Y-85447142D01*
X80117714Y-85351904D01*
X80117714Y-85161428D01*
X80070095Y-85066190D01*
X80022476Y-85018571D01*
X79927238Y-84970952D01*
X80625761Y-108521333D02*
X80673380Y-108378476D01*
X80673380Y-108140380D01*
X80625761Y-108045142D01*
X80578142Y-107997523D01*
X80482904Y-107949904D01*
X80387666Y-107949904D01*
X80292428Y-107997523D01*
X80244809Y-108045142D01*
X80197190Y-108140380D01*
X80149571Y-108330857D01*
X80101952Y-108426095D01*
X80054333Y-108473714D01*
X79959095Y-108521333D01*
X79863857Y-108521333D01*
X79768619Y-108473714D01*
X79721000Y-108426095D01*
X79673380Y-108330857D01*
X79673380Y-108092761D01*
X79721000Y-107949904D01*
X79673380Y-107616571D02*
X80673380Y-107378476D01*
X79959095Y-107188000D01*
X80673380Y-106997523D01*
X79673380Y-106759428D01*
X80673380Y-105854666D02*
X80673380Y-106426095D01*
X80673380Y-106140380D02*
X79673380Y-106140380D01*
X79816238Y-106235619D01*
X79911476Y-106330857D01*
X79959095Y-106426095D01*
X62060095Y-102957380D02*
X62060095Y-103766904D01*
X62107714Y-103862142D01*
X62155333Y-103909761D01*
X62250571Y-103957380D01*
X62441047Y-103957380D01*
X62536285Y-103909761D01*
X62583904Y-103862142D01*
X62631523Y-103766904D01*
X62631523Y-102957380D01*
X63583904Y-102957380D02*
X63107714Y-102957380D01*
X63060095Y-103433571D01*
X63107714Y-103385952D01*
X63202952Y-103338333D01*
X63441047Y-103338333D01*
X63536285Y-103385952D01*
X63583904Y-103433571D01*
X63631523Y-103528809D01*
X63631523Y-103766904D01*
X63583904Y-103862142D01*
X63536285Y-103909761D01*
X63441047Y-103957380D01*
X63202952Y-103957380D01*
X63107714Y-103909761D01*
X63060095Y-103862142D01*
X64115904Y-83764380D02*
X64115904Y-82764380D01*
X64354000Y-82764380D01*
X64496857Y-82812000D01*
X64592095Y-82907238D01*
X64639714Y-83002476D01*
X64687333Y-83192952D01*
X64687333Y-83335809D01*
X64639714Y-83526285D01*
X64592095Y-83621523D01*
X64496857Y-83716761D01*
X64354000Y-83764380D01*
X64115904Y-83764380D01*
X65544476Y-83097714D02*
X65544476Y-83764380D01*
X65306380Y-82716761D02*
X65068285Y-83431047D01*
X65687333Y-83431047D01*
X63274380Y-84367666D02*
X62798190Y-84701000D01*
X63274380Y-84939095D02*
X62274380Y-84939095D01*
X62274380Y-84558142D01*
X62322000Y-84462904D01*
X62369619Y-84415285D01*
X62464857Y-84367666D01*
X62607714Y-84367666D01*
X62702952Y-84415285D01*
X62750571Y-84462904D01*
X62798190Y-84558142D01*
X62798190Y-84939095D01*
X63274380Y-83891476D02*
X63274380Y-83701000D01*
X63226761Y-83605761D01*
X63179142Y-83558142D01*
X63036285Y-83462904D01*
X62845809Y-83415285D01*
X62464857Y-83415285D01*
X62369619Y-83462904D01*
X62322000Y-83510523D01*
X62274380Y-83605761D01*
X62274380Y-83796238D01*
X62322000Y-83891476D01*
X62369619Y-83939095D01*
X62464857Y-83986714D01*
X62702952Y-83986714D01*
X62798190Y-83939095D01*
X62845809Y-83891476D01*
X62893428Y-83796238D01*
X62893428Y-83605761D01*
X62845809Y-83510523D01*
X62798190Y-83462904D01*
X62702952Y-83415285D01*
X62845761Y-108648333D02*
X62893380Y-108505476D01*
X62893380Y-108267380D01*
X62845761Y-108172142D01*
X62798142Y-108124523D01*
X62702904Y-108076904D01*
X62607666Y-108076904D01*
X62512428Y-108124523D01*
X62464809Y-108172142D01*
X62417190Y-108267380D01*
X62369571Y-108457857D01*
X62321952Y-108553095D01*
X62274333Y-108600714D01*
X62179095Y-108648333D01*
X62083857Y-108648333D01*
X61988619Y-108600714D01*
X61941000Y-108553095D01*
X61893380Y-108457857D01*
X61893380Y-108219761D01*
X61941000Y-108076904D01*
X61893380Y-107743571D02*
X62893380Y-107505476D01*
X62179095Y-107315000D01*
X62893380Y-107124523D01*
X61893380Y-106886428D01*
X61988619Y-106553095D02*
X61941000Y-106505476D01*
X61893380Y-106410238D01*
X61893380Y-106172142D01*
X61941000Y-106076904D01*
X61988619Y-106029285D01*
X62083857Y-105981666D01*
X62179095Y-105981666D01*
X62321952Y-106029285D01*
X62893380Y-106600714D01*
X62893380Y-105981666D01*
M02*
