M48
;DRILL file {KiCad 5.0.0-rc1-44a33f2~62~ubuntu16.04.1} date Tue Apr 24 12:52:48 2018
;FORMAT={-:-/ absolute / inch / decimal}
FMAT,2
INCH,TZ
T1C0.0118
T2C0.0256
T3C0.0276
T4C0.0354
T5C0.0394
%
G90
G05
M72
T1
X2.2783Y-2.16
X2.2783Y-3.82
X2.2833Y-2.09
X2.2883Y-4.02
X2.3433Y-2.085
X2.3583Y-4.205
X2.3933Y-4.035
X2.3959Y-2.4993
X2.3983Y-2.09
X2.4033Y-3.895
X2.4083Y-3.54
X2.4283Y-3.695
X2.4288Y-3.4871
X2.4353Y-3.7981
X2.4383Y-4.11
X2.4433Y-4.345
X2.4633Y-2.09
X2.4733Y-3.39
X2.4883Y-3.563
X2.4983Y-2.25
X2.4983Y-2.305
X2.4983Y-2.45
X2.4983Y-2.5
X2.4983Y-2.55
X2.5033Y-2.35
X2.5083Y-2.145
X2.5083Y-2.2
X2.5083Y-2.935
X2.5223Y-3.2836
X2.5383Y-2.685
X2.5383Y-2.975
X2.5433Y-2.09
X2.5433Y-2.59
X2.5483Y-2.93
X2.5531Y-3.4889
X2.5533Y-2.21
X2.5533Y-3.4561
X2.5683Y-2.445
X2.5683Y-2.825
X2.5733Y-4.0474
X2.5734Y-4.235
X2.5765Y-3.3934
X2.5783Y-2.735
X2.5783Y-2.78
X2.5783Y-3.53
X2.5983Y-2.925
X2.6033Y-3.68
X2.6033Y-4.135
X2.6131Y-3.8306
X2.6133Y-2.09
X2.6133Y-3.925
X2.6183Y-3.785
X2.6233Y-2.215
X2.6283Y-2.395
X2.6432Y-3.8464
X2.6433Y-4.175
X2.6633Y-2.56
X2.6633Y-3.65
X2.6776Y-3.3791
X2.6783Y-2.09
X2.6783Y-2.965
X2.6833Y-2.21
X2.6883Y-2.4
X2.6883Y-4.175
X2.6889Y-3.8532
X2.6966Y-3.4835
X2.6983Y-2.32
X2.6983Y-3.575
X2.6983Y-4.06
X2.7074Y-3.3892
X2.7183Y-4.225
X2.7283Y-3.99
X2.7333Y-3.865
X2.7333Y-4.3
X2.7333Y-4.355
X2.7366Y-3.401
X2.7433Y-4.17
X2.7483Y-2.62
X2.7533Y-2.78
X2.7533Y-2.845
X2.7583Y-2.09
X2.7583Y-2.7
X2.7583Y-2.96
X2.7633Y-2.505
X2.7907Y-3.4318
X2.7933Y-2.18
X2.8033Y-2.355
X2.8033Y-2.885
X2.8133Y-3.99
X2.8483Y-2.65
X2.8488Y-3.895
X2.8583Y-2.955
X2.8633Y-2.09
X2.8633Y-3.245
X2.8733Y-3.4924
X2.8883Y-3.905
X2.9083Y-3.42
X2.9183Y-2.44
X2.9208Y-3.904
X2.9233Y-2.57
X2.9233Y-3.985
X2.9283Y-2.745
X2.9283Y-2.82
X2.9283Y-2.89
X2.9283Y-2.955
X2.9283Y-4.035
X2.9283Y-4.095
X2.9383Y-2.695
X2.9433Y-2.09
X2.9533Y-2.27
X2.9683Y-3.9
X2.9815Y-3.4432
X2.9873Y-3.4036
X2.9983Y-2.635
X3.0083Y-4.035
X3.0097Y-3.8314
X3.0124Y-3.195
X3.0133Y-2.505
X3.0133Y-2.575
X3.0133Y-4.095
X3.0183Y-2.09
X3.0333Y-2.44
X3.0333Y-3.505
X3.0354Y-3.6686
X3.0431Y-3.6298
X3.0579Y-3.7786
X3.0583Y-3.44
X3.0583Y-3.875
X3.0683Y-2.395
X3.0733Y-2.15
X3.0733Y-2.3
X3.0833Y-2.45
X3.0833Y-2.505
X3.0883Y-2.7
X3.0933Y-2.09
X3.0933Y-2.865
X3.0983Y-2.25
X3.1233Y-4.05
X3.1283Y-4.36
X3.1318Y-3.0086
X3.1483Y-4.23
X3.1583Y-4.15
X3.1633Y-3.01
X3.1633Y-3.4
X3.1647Y-3.1151
X3.1683Y-4.305
X3.1783Y-2.09
X3.1883Y-3.915
X3.2433Y-4.25
X3.2483Y-4.18
X3.2533Y-4.035
X3.2833Y-3.8
X3.3083Y-2.085
X3.3083Y-2.17
T4
X2.3433Y-2.15
X2.3433Y-2.25
X2.3433Y-2.35
X2.3433Y-2.45
X2.3433Y-2.55
X2.3433Y-2.65
X2.3433Y-2.75
X2.3433Y-2.85
X2.3433Y-2.95
X2.3433Y-3.05
X2.3433Y-3.15
X2.3433Y-3.25
X2.3433Y-3.35
X2.3433Y-3.45
X2.3433Y-3.55
X2.3433Y-3.65
X2.3433Y-3.75
X2.3433Y-3.85
X2.3433Y-3.95
X3.2433Y-2.15
X3.2433Y-2.25
X3.2433Y-2.35
X3.2433Y-2.45
X3.2433Y-2.55
X3.2433Y-2.65
X3.2433Y-2.75
X3.2433Y-2.85
X3.2433Y-2.95
X3.2433Y-3.05
X3.2433Y-3.15
X3.2433Y-3.25
X3.2433Y-3.35
X3.2433Y-3.45
X3.2433Y-3.55
X3.2433Y-3.65
X3.2433Y-3.75
X3.2433Y-3.85
X3.2433Y-3.95
T5
X2.5433Y-4.3
X2.6433Y-4.3
X2.6583Y-3.16
X2.7583Y-3.16
X2.8583Y-3.16
X2.9583Y-3.16
T2
X2.8352Y-4.2041G85X2.8352Y-4.1884
G05
X3.0258Y-4.2041G85X3.0258Y-4.1884
G05
T3
X2.823Y-4.3242G85X2.823Y-4.3045
G05
X3.038Y-4.3242G85X3.038Y-4.3045
G05
T0
M30
